<?xml version="1.0" encoding="UTF-8"?>
<svg version="1.1" xmlns="http://www.w3.org/2000/svg" width="2048" height="2048">
<path d="M0 0 C675.84 0 1351.68 0 2048 0 C2048 675.84 2048 1351.68 2048 2048 C1372.16 2048 696.32 2048 0 2048 C0 1372.16 0 696.32 0 0 Z " fill="#FEFEFE" transform="translate(0,0)"/>
<path d="M0 0 C21.12 0 42.24 0 64 0 C64 42.24 64 84.48 64 128 C85.12 128 106.24 128 128 128 C128 233.6 128 339.2 128 448 C212.48 448 296.96 448 384 448 C384 469.12 384 490.24 384 512 C426.24 512 468.48 512 512 512 C512 533.12 512 554.24 512 576 C533.12 576 554.24 576 576 576 C576 597.12 576 618.24 576 640 C533.76 640 491.52 640 448 640 C448 661.12 448 682.24 448 704 C342.4 704 236.8 704 128 704 C128 894.08 128 1084.16 128 1280 C106.88 1280 85.76 1280 64 1280 C64 1343.36 64 1406.72 64 1472 C42.88 1472 21.76 1472 0 1472 C0 1450.88 0 1429.76 0 1408 C-21.12 1408 -42.24 1408 -64 1408 C-64 1386.88 -64 1365.76 -64 1344 C-85.12 1344 -106.24 1344 -128 1344 C-128 1132.8 -128 921.6 -128 704 C-212.48 704 -296.96 704 -384 704 C-384 682.88 -384 661.76 -384 640 C-405.12 640 -426.24 640 -448 640 C-448 618.88 -448 597.76 -448 576 C-469.12 576 -490.24 576 -512 576 C-512 554.88 -512 533.76 -512 512 C-469.76 512 -427.52 512 -384 512 C-384 490.88 -384 469.76 -384 448 C-299.52 448 -215.04 448 -128 448 C-128 363.52 -128 279.04 -128 192 C-106.88 192 -85.76 192 -64 192 C-64 149.76 -64 107.52 -64 64 C-42.88 64 -21.76 64 0 64 C0 42.88 0 21.76 0 0 Z " fill="#1C1C1C" transform="translate(1024,256)"/>
<path d="M0 0 C21.12 0 42.24 0 64 0 C64 42.24 64 84.48 64 128 C85.12 128 106.24 128 128 128 C128 233.6 128 339.2 128 448 C106.88 448 85.76 448 64 448 C64 384.64 64 321.28 64 256 C42.88 256 21.76 256 0 256 C0 298.24 0 340.48 0 384 C-21.12 384 -42.24 384 -64 384 C-64 405.12 -64 426.24 -64 448 C-85.12 448 -106.24 448 -128 448 C-128 363.52 -128 279.04 -128 192 C-106.88 192 -85.76 192 -64 192 C-64 149.76 -64 107.52 -64 64 C-42.88 64 -21.76 64 0 64 C0 42.88 0 21.76 0 0 Z " fill="#3E3E3E" transform="translate(1024,256)"/>
<path d="M0 0 C21.12 0 42.24 0 64 0 C64 147.84 64 295.68 64 448 C85.12 448 106.24 448 128 448 C128 511.36 128 574.72 128 640 C149.12 640 170.24 640 192 640 C192 682.24 192 724.48 192 768 C170.88 768 149.76 768 128 768 C128 746.88 128 725.76 128 704 C106.88 704 85.76 704 64 704 C64 682.88 64 661.76 64 640 C42.88 640 21.76 640 0 640 C0 428.8 0 217.6 0 0 Z " fill="#3E3E3E" transform="translate(896,960)"/>
<path d="M0 0 C21.12 0 42.24 0 64 0 C64 21.12 64 42.24 64 64 C106.24 64 148.48 64 192 64 C192 85.12 192 106.24 192 128 C213.12 128 234.24 128 256 128 C256 149.12 256 170.24 256 192 C213.76 192 171.52 192 128 192 C128 213.12 128 234.24 128 256 C22.4 256 -83.2 256 -192 256 C-192 234.88 -192 213.76 -192 192 C-107.52 192 -23.04 192 64 192 C64 170.88 64 149.76 64 128 C42.88 128 21.76 128 0 128 C0 85.76 0 43.52 0 0 Z " fill="#5C5C5C" transform="translate(1344,704)"/>
<path d="M0 0 C21.12 0 42.24 0 64 0 C64 190.08 64 380.16 64 576 C42.88 576 21.76 576 0 576 C0 385.92 0 195.84 0 0 Z " fill="#3E3E3E" transform="translate(1088,960)"/>
<path d="M0 0 C84.48 0 168.96 0 256 0 C256 21.12 256 42.24 256 64 C213.76 64 171.52 64 128 64 C128 85.12 128 106.24 128 128 C43.52 128 -40.96 128 -128 128 C-128 106.88 -128 85.76 -128 64 C-85.76 64 -43.52 64 0 64 C0 42.88 0 21.76 0 0 Z " fill="#3E3E3E" transform="translate(640,704)"/>
<path d="M0 0 C21.12 0 42.24 0 64 0 C64 105.6 64 211.2 64 320 C42.88 320 21.76 320 0 320 C0 214.4 0 108.8 0 0 Z " fill="#3F3F3F" transform="translate(1088,384)"/>
<path d="M0 0 C84.48 0 168.96 0 256 0 C256 21.12 256 42.24 256 64 C171.52 64 87.04 64 0 64 C0 42.88 0 21.76 0 0 Z " fill="#3D3D3D" transform="translate(1152,896)"/>
<path d="M0 0 C84.48 0 168.96 0 256 0 C256 21.12 256 42.24 256 64 C171.52 64 87.04 64 0 64 C0 42.88 0 21.76 0 0 Z " fill="#3D3D3D" transform="translate(640,896)"/>
<path d="M0 0 C21.12 0 42.24 0 64 0 C64 42.24 64 84.48 64 128 C42.88 128 21.76 128 0 128 C0 149.12 0 170.24 0 192 C-21.12 192 -42.24 192 -64 192 C-64 149.76 -64 107.52 -64 64 C-42.88 64 -21.76 64 0 64 C0 42.88 0 21.76 0 0 Z " fill="#606060" transform="translate(1024,256)"/>
<path d="M0 0 C63.36 0 126.72 0 192 0 C192 21.12 192 42.24 192 64 C128.64 64 65.28 64 0 64 C0 42.88 0 21.76 0 0 Z " fill="#3E3E3E" transform="translate(1152,704)"/>
<path d="M0 0 C21.12 0 42.24 0 64 0 C64 42.24 64 84.48 64 128 C21.76 128 -20.48 128 -64 128 C-64 106.88 -64 85.76 -64 64 C-42.88 64 -21.76 64 0 64 C0 42.88 0 21.76 0 0 Z " fill="#414141" transform="translate(1024,384)"/>
<path d="M0 0 C42.24 0 84.48 0 128 0 C128 21.12 128 42.24 128 64 C85.76 64 43.52 64 0 64 C0 42.88 0 21.76 0 0 Z " fill="#5D5D5D" transform="translate(512,768)"/>
<path d="M0 0 C21.12 0 42.24 0 64 0 C64 42.24 64 84.48 64 128 C42.88 128 21.76 128 0 128 C0 85.76 0 43.52 0 0 Z " fill="#3F3F3F" transform="translate(1344,704)"/>
<path d="M0 0 C21.12 0 42.24 0 64 0 C64 42.24 64 84.48 64 128 C42.88 128 21.76 128 0 128 C0 85.76 0 43.52 0 0 Z " fill="#808080" transform="translate(1088,384)"/>
<path d="M0 0 C21.12 0 42.24 0 64 0 C64 21.12 64 42.24 64 64 C42.88 64 21.76 64 0 64 C0 42.88 0 21.76 0 0 Z " fill="#7E7E7E" transform="translate(1024,1664)"/>
<path d="M0 0 C21.12 0 42.24 0 64 0 C64 21.12 64 42.24 64 64 C42.88 64 21.76 64 0 64 C0 42.88 0 21.76 0 0 Z " fill="#7E7E7E" transform="translate(960,1600)"/>
<path d="M0 0 C21.12 0 42.24 0 64 0 C64 21.12 64 42.24 64 64 C42.88 64 21.76 64 0 64 C0 42.88 0 21.76 0 0 Z " fill="#7D7D7D" transform="translate(896,1536)"/>
<path d="M0 0 C21.12 0 42.24 0 64 0 C64 21.12 64 42.24 64 64 C42.88 64 21.76 64 0 64 C0 42.88 0 21.76 0 0 Z " fill="#7F7F7F" transform="translate(1088,1472)"/>
<path d="M0 0 C21.12 0 42.24 0 64 0 C64 21.12 64 42.24 64 64 C42.88 64 21.76 64 0 64 C0 42.88 0 21.76 0 0 Z " fill="#7F7F7F" transform="translate(1408,896)"/>
<path d="M0 0 C21.12 0 42.24 0 64 0 C64 21.12 64 42.24 64 64 C42.88 64 21.76 64 0 64 C0 42.88 0 21.76 0 0 Z " fill="#5E5E5E" transform="translate(1344,896)"/>
<path d="M0 0 C21.12 0 42.24 0 64 0 C64 21.12 64 42.24 64 64 C42.88 64 21.76 64 0 64 C0 42.88 0 21.76 0 0 Z " fill="#7F7F7F" transform="translate(640,896)"/>
<path d="M0 0 C21.12 0 42.24 0 64 0 C64 21.12 64 42.24 64 64 C42.88 64 21.76 64 0 64 C0 42.88 0 21.76 0 0 Z " fill="#7F7F7F" transform="translate(1536,832)"/>
<path d="M0 0 C21.12 0 42.24 0 64 0 C64 21.12 64 42.24 64 64 C42.88 64 21.76 64 0 64 C0 42.88 0 21.76 0 0 Z " fill="#3F3F3F" transform="translate(1408,832)"/>
<path d="M0 0 C21.12 0 42.24 0 64 0 C64 21.12 64 42.24 64 64 C42.88 64 21.76 64 0 64 C0 42.88 0 21.76 0 0 Z " fill="#3E3E3E" transform="translate(576,832)"/>
<path d="M0 0 C21.12 0 42.24 0 64 0 C64 21.12 64 42.24 64 64 C42.88 64 21.76 64 0 64 C0 42.88 0 21.76 0 0 Z " fill="#808080" transform="translate(448,832)"/>
<path d="M0 0 C21.12 0 42.24 0 64 0 C64 21.12 64 42.24 64 64 C42.88 64 21.76 64 0 64 C0 42.88 0 21.76 0 0 Z " fill="#7F7F7F" transform="translate(1472,768)"/>
<path d="M0 0 C21.12 0 42.24 0 64 0 C64 21.12 64 42.24 64 64 C42.88 64 21.76 64 0 64 C0 42.88 0 21.76 0 0 Z " fill="#7F7F7F" transform="translate(512,768)"/>
<path d="M0 0 C21.12 0 42.24 0 64 0 C64 21.12 64 42.24 64 64 C42.88 64 21.76 64 0 64 C0 42.88 0 21.76 0 0 Z " fill="#7F7F7F" transform="translate(1344,704)"/>
<path d="M0 0 C21.12 0 42.24 0 64 0 C64 21.12 64 42.24 64 64 C42.88 64 21.76 64 0 64 C0 42.88 0 21.76 0 0 Z " fill="#7E7E7E" transform="translate(640,704)"/>
<path d="M0 0 C21.12 0 42.24 0 64 0 C64 21.12 64 42.24 64 64 C42.88 64 21.76 64 0 64 C0 42.88 0 21.76 0 0 Z " fill="#1C1C1C" transform="translate(960,448)"/>
<path d="M0 0 C21.12 0 42.24 0 64 0 C64 21.12 64 42.24 64 64 C42.88 64 21.76 64 0 64 C0 42.88 0 21.76 0 0 Z " fill="#7F7F7F" transform="translate(896,448)"/>
<path d="M0 0 C21.12 0 42.24 0 64 0 C64 21.12 64 42.24 64 64 C42.88 64 21.76 64 0 64 C0 42.88 0 21.76 0 0 Z " fill="#5C5C5C" transform="translate(960,384)"/>
<path d="M0 0 C21.12 0 42.24 0 64 0 C64 21.12 64 42.24 64 64 C42.88 64 21.76 64 0 64 C0 42.88 0 21.76 0 0 Z " fill="#808080" transform="translate(960,320)"/>
<path d="M0 0 C21.12 0 42.24 0 64 0 C64 21.12 64 42.24 64 64 C42.88 64 21.76 64 0 64 C0 42.88 0 21.76 0 0 Z " fill="#808080" transform="translate(1024,256)"/>
</svg>
